# xmcd
# Track frame offsets:
# 150
# 24086
# 45018
# 73682
# 97605
# 125966
# 155199
# 194141
# 219072
# 243806
# 270469
# 292022
# 326350
#
# Disc length: 4662 seconds
# Revision: 0
# Processed by: cddbd v1.5.2PL0 Copyright (c) Steve Scherf et al.
# Submitted via: VisiTrax 2.11.3.279 - For more info visit www.synapsa.com
#
DISCID=af12340d
DTITLE=CD Pool - Club August 2014 CD1
DYEAR=2014
DGENRE=House
TTITLE0=Porter Robinson ft. Urban Cone - Lionhearted (Arty Remix)
TTITLE1=Shift K3Y - I Know (Extended Mix)
TTITLE2=Ray Foxx ft. Rachel K Collier - Curious (DEVolution Remix)
TTITLE3=Jump Star ft. Ron Carroll - We Did Alright (Club Mix)
TTITLE4=Dubvision - Backlash (Martin Garrix Edit)
TTITLE5=Henry Krinkle - Stay (Original Mix)
TTITLE6=Wankelmut and Emma Louise - My Head Is A Jungle (MK Remix)
TTITLE7=Billon ft. Maxine Ashley - Special (Extended Mix)
TTITLE8=Corbu - Believe The Lie (Mike Mago Remix)
TTITLE9=Frequency and SoulCircuit ft. Diia - Lost (Original Mix)
TTITLE10=Clean Bandit ft. Stylo G - Come Over (Mele Remix)
TTITLE11=Jason Ross - Burma (Cold Blue Remix)
TTITLE12=Marletron - World Is Yours (Futuristic Polar Bears Remix)
EXTD=
EXTT0=
EXTT1=
EXTT2=
EXTT3=
EXTT4=
EXTT5=
EXTT6=
EXTT7=
EXTT8=
EXTT9=
EXTT10=
EXTT11=
EXTT12=
PLAYORDER=
